<?xml version="1.0" encoding="utf-8"?>
<!-- Generator: Adobe Illustrator 24.0.1, SVG Export Plug-In . SVG Version: 6.00 Build 0)  -->
<svg version="1.1" id="Camada_1" xmlns="http://www.w3.org/2000/svg" xmlns:xlink="http://www.w3.org/1999/xlink" x="0px" y="0px"
	 viewBox="0 0 1080 1080" style="enable-background:new 0 0 1080 1080;" xml:space="preserve">
<style type="text/css">
	.st0{display:none;fill:none;stroke:#000000;stroke-width:15;stroke-miterlimit:10;}
	.st1{display:none;}
	.st2{display:inline;fill:#FFFFFF;stroke:#000000;stroke-width:5;stroke-miterlimit:10;}
	.st3{fill:none;stroke:#000000;stroke-width:15;stroke-miterlimit:10;}
	.st4{stroke:#000000;stroke-width:15;stroke-miterlimit:10;}
	.st5{display:inline;}
	.st6{fill:#FFFFFF;stroke:#000000;stroke-width:5;stroke-miterlimit:10;}
	.st7{fill:none;stroke:#000000;stroke-width:5;stroke-miterlimit:10;}
</style>
<path class="st0" d="M390.7,584.46V443.01c0-33.12,26.85-59.98,59.98-59.98h153.2c33.12,0,59.98,26.85,59.98,59.98v141.45
	c0,33.13-26.85,59.98-59.98,59.98h-153.2C417.56,644.44,390.7,617.59,390.7,584.46z"/>
<g class="st1">
	<path class="st2" d="M492.3,499.29c26.1,26.1,26.09,68.4,0,94.5h0l0,0c-26.09,26.1-68.4,26.1-94.5,0l0,0l47.25-47.25L492.3,499.29
		L492.3,499.29z"/>
	<path class="st2" d="M534.34,444.48l-47.25,47.25l-47.25,47.25h0c-26.1-26.09-26.1-68.4,0-94.5l0,0l0,0
		C465.94,418.38,508.25,418.38,534.34,444.48L534.34,444.48z"/>
</g>
<path class="st3" d="M486.82,749.56L486.82,749.56c-77.16,77.16-202.25,77.16-279.41,0l0,0l139.71-139.71L486.82,749.56z"/>
<path class="st4" d="M486.82,470.15L347.11,609.85l0,0c-77.16-77.16-77.16-202.25,0-279.41l0,0L486.82,470.15z"/>
<path class="st4" d="M486.82,749.56L347.11,609.85l139.71-139.71l0,0C563.98,547.3,563.98,672.4,486.82,749.56z"/>
<path class="st3" d="M626.52,330.44L486.82,470.15L347.11,330.44l0,0C424.27,253.28,549.37,253.28,626.52,330.44L626.52,330.44z"/>
<g class="st1">
	<g class="st5">
		<circle class="st6" cx="599.86" cy="450.06" r="22.16"/>
		<circle class="st6" cx="599.86" cy="450.06" r="11.92"/>
		<line class="st7" x1="599.86" y1="472.22" x2="599.86" y2="644.44"/>
	</g>
	<g class="st5">
		<path class="st6" d="M484.85,478.87l-38.32-38.32l-3.13,3.13c-19.43,19.43-19.43,50.94,0,70.38l3.13,3.13L484.85,478.87z"/>
		<path class="st6" d="M500.07,501.98L500.07,501.98c-8.4-8.4-22.03-8.4-30.43,0l0,0c-8.4,8.4-8.4,22.03,0,30.43l0,0
			c8.4,8.4,22.03,8.4,30.43,0l0,0C508.47,524.01,508.47,510.38,500.07,501.98z"/>
		<path class="st6" d="M531.17,432.55l-3.13-3.13c-19.43-19.43-50.94-19.43-70.38,0l-3.13,3.13l38.32,38.32L531.17,432.55z"/>
		<path class="st6" d="M516.17,600.84l-38.32-38.32l-38.32,38.32l3.13,3.13c19.43,19.43,50.94,19.43,70.38,0L516.17,600.84z"/>
		<path class="st6" d="M526.31,520.33l-3.13-3.13l-38.32,38.32l38.32,38.32l3.13-3.13C545.74,571.27,545.74,539.76,526.31,520.33z"
			/>
	</g>
	<circle class="st2" cx="484.85" cy="517.19" r="20.06"/>
</g>
<path class="st4" d="M872.59,346.18L872.59,346.18c0,46.79-37.93,84.72-84.72,84.72h-84.72v-84.72c0-46.79,37.93-84.72,84.72-84.72
	h0C834.66,261.46,872.59,299.39,872.59,346.18z"/>
<path class="st3" d="M872.59,641.55H703.15v-84.72c0-46.79,37.93-84.72,84.72-84.72h0c46.79,0,84.72,37.93,84.72,84.72V641.55z"/>
<path class="st4" d="M872.59,810.98L872.59,810.98c-93.58,0-169.44-75.86-169.44-169.44v0h169.44V810.98z"/>
</svg>
